<?xml version="1.0" encoding="UTF-8" standalone="no"?>
<!-- Created with Inkscape (http://www.inkscape.org/) -->
<svg xmlns:dc="http://purl.org/dc/elements/1.1/" xmlns:cc="http://web.resource.org/cc/" xmlns:rdf="http://www.w3.org/1999/02/22-rdf-syntax-ns#" xmlns:svg="http://www.w3.org/2000/svg" xmlns="http://www.w3.org/2000/svg" xmlns:sodipodi="http://sodipodi.sourceforge.net/DTD/sodipodi-0.dtd" xmlns:inkscape="http://www.inkscape.org/namespaces/inkscape" width="461.58661" height="708.66144" id="svg2949" sodipodi:version="0.32" inkscape:version="0.46dev+devel" version="1.0" sodipodi:docname="maserati_logo.svg" inkscape:output_extension="org.inkscape.output.svg.inkscape">
  <defs id="defs2951"/>
  <sodipodi:namedview id="base" pagecolor="#ffffff" bordercolor="#666666" borderopacity="1.0" inkscape:pageopacity="0.0" inkscape:pageshadow="2" inkscape:zoom="0.98994949" inkscape:cx="288.22414" inkscape:cy="365.30818" inkscape:document-units="px" inkscape:current-layer="layer1" inkscape:window-width="1400" inkscape:window-height="994" inkscape:window-x="-4" inkscape:window-y="-4"/>
  <metadata id="metadata2954">
    <rdf:RDF>
      <cc:Work rdf:about="">
        <dc:format>image/svg+xml</dc:format>
        <dc:type rdf:resource="http://purl.org/dc/dcmitype/StillImage"/>
      </cc:Work>
    </rdf:RDF>
  </metadata>
  <g inkscape:label="Ebene 1" inkscape:groupmode="layer" id="layer1" transform="translate(-309.935, 165.423)">
    <g id="g2978" transform="matrix(7.16583, 0, 0, 7.16583, -1911.01, -3349.51)">
      <path d="M 373.70253,493.79513 C 373.70253,520.85391 359.48595,542.59898 342.14417,542.59898 C 324.79539,542.59898 310.57706,520.85391 310.57706,493.79513 C 310.57706,466.7276 324.79539,444.98253 342.14417,444.98253 C 359.48595,444.98253 373.70253,466.7276 373.70253,493.79513" class="ps01" id="path320" style="fill: rgb(255, 255, 255); fill-rule: nonzero; stroke: none;"/>
      <path d="M 337.6796,498.12839 L 347.00267,498.12839 L 347.00267,500.42195 L 337.6796,500.42195 L 337.6796,498.12839 z" class="ps05" id="path322" style="fill: rgb(226, 26, 34); fill-rule: evenodd; stroke: none;"/>
      <path d="M 338.81763,501.32362 L 345.8734,501.32362 L 345.8734,503.8798 L 338.81763,503.8798 L 338.81763,501.32362 z" class="ps05" id="path324" style="fill: rgb(226, 26, 34); fill-rule: evenodd; stroke: none;"/>
      <path d="M 328.48872,487.44844 L 356.20318,487.44844 L 356.20318,488.59522 L 328.48872,488.59522 L 328.48872,487.44844 z" class="ps05" id="path326" style="fill: rgb(226, 26, 34); fill-rule: evenodd; stroke: none;"/>
      <path d="M 327.01279,489.6282 L 357.67386,489.6282 L 357.67386,490.77498 L 327.01279,490.77498 L 327.01279,489.6282 z" class="ps05" id="path328" style="fill: rgb(226, 26, 34); fill-rule: evenodd; stroke: none;"/>
      <path d="M 326.9734,485.3037 L 357.63884,485.3037 L 357.63884,486.45048 L 326.9734,486.45048 L 326.9734,485.3037 z" class="ps05" id="path330" style="fill: rgb(226, 26, 34); fill-rule: evenodd; stroke: none;"/>
      <path d="M 347.18651,493.26113 C 345.64579,494.66178 345.65455,497.18295 345.65455,497.18295 L 342.34551,497.18295 L 339.04524,497.18295 C 339.04524,497.18295 339.05399,494.66178 337.51328,493.26113 C 336.44178,492.28068 335.13042,492.07058 335.13042,492.07058 C 334.27165,491.90426 334.27078,491.79921 334.27078,491.74668 L 350.41675,491.74668 C 350.41675,491.74668 350.41675,491.8955 349.55885,492.07058 C 349.55885,492.07058 348.2545,492.28068 347.18651,493.26113" class="ps05" id="path332" style="fill: rgb(226, 26, 34); fill-rule: evenodd; stroke: none;"/>
      <path d="M 328.62003,491.74668 C 328.94393,491.74668 331.49224,491.74668 331.94745,491.74668 C 331.94745,493.71634 330.67198,494.6005 328.62003,494.1628 C 328.62003,492.90222 328.62003,492.38573 328.62003,491.74668" class="ps05" id="path334" style="fill: rgb(226, 26, 34); fill-rule: evenodd; stroke: none;"/>
      <path d="M 340.41087,459.96072 C 341.74148,457.3345 341.99535,453.39518 342.32801,453.32514 C 342.66066,453.39518 342.91453,457.3345 344.24514,459.95196 C 345.49697,462.42936 348.18447,464.52158 348.02689,464.76669 C 347.84306,465.07308 346.35487,464.30273 345.60202,463.96132 C 344.40272,463.3923 343.43102,462.96336 343.43102,462.96336 C 343.43102,462.96336 342.94954,469.24001 344.4815,475.01769 C 345.73333,479.75363 348.72722,484.06938 348.99859,484.4458 L 345.18183,484.4458 C 345.05927,484.24446 344.93671,484.05187 344.83166,483.85053 C 343.78993,482.02093 343.04584,480.43645 342.32801,477.70518 C 341.60142,480.43645 340.87483,482.02093 339.8331,483.85053 C 339.7193,484.05187 339.6055,484.24446 339.48294,484.4458 L 335.66004,484.4458 C 335.93229,484.06938 338.93143,479.75363 340.18326,475.01769 C 341.70647,469.24877 341.23375,462.96336 341.23375,462.96336 C 341.23375,462.96336 340.2533,463.40106 339.05399,463.96132 C 338.3099,464.31148 336.82171,465.07308 336.62912,464.76669 C 336.4803,464.52158 339.16779,462.42936 340.41087,459.96072" class="ps05" id="path336" style="fill: rgb(226, 26, 34); fill-rule: evenodd; stroke: none;"/>
      <path d="M 328.48697,484.4458 C 328.47209,483.98184 328.23223,477.62639 326.74141,472.63658 C 325.10878,467.1653 321.82689,463.90879 322.04749,463.58489 C 322.24883,463.2785 324.96434,463.83001 327.00053,465.23066 C 329.17329,466.7276 331.3049,469.19624 331.1482,469.38008 C 331.05191,469.49388 330.31832,468.8811 328.99646,468.39087 C 327.58968,467.86563 326.97427,467.96192 326.97427,467.96192 C 326.97427,467.96192 329.30723,471.82246 330.46364,476.00689 C 331.43271,479.51727 331.93694,484.05187 331.96321,484.4458 L 328.48697,484.4458" class="ps05" id="path338" style="fill: rgb(226, 26, 34); fill-rule: evenodd; stroke: none;"/>
      <path d="M 356.21193,484.4458 C 356.22944,483.98184 356.4658,477.62639 357.96274,472.63658 C 359.591,467.1653 362.87377,463.90879 362.65492,463.58489 C 362.45357,463.2785 359.73982,463.83001 357.70012,465.23066 C 355.52912,466.7276 353.39313,469.19624 353.5507,469.38008 C 353.647,469.49388 354.38234,468.8811 355.7042,468.39087 C 357.1136,467.86563 357.72638,467.96192 357.72638,467.96192 C 357.72638,467.96192 355.38905,471.82246 354.23352,476.00689 C 353.27057,479.51727 352.76284,484.05187 352.73657,484.4458 L 356.21193,484.4458" class="ps05" id="path340" style="fill: rgb(226, 26, 34); fill-rule: evenodd; stroke: none;"/>
      <path d="M 356.08062,491.74668 C 355.75672,491.74668 353.20929,491.74668 352.75408,491.74668 C 352.75408,493.71634 354.03217,494.6005 356.08062,494.1628 C 356.08062,492.90222 356.08062,492.38573 356.08062,491.74668" class="ps05" id="path342" style="fill: rgb(226, 26, 34); fill-rule: evenodd; stroke: none;"/>
      <path d="M 342.14417,444.34349 C 360.06372,444.34349 374.35033,466.65757 374.35033,493.79513 C 374.35033,520.93269 360.06372,543.23802 342.14417,543.23802 C 324.21499,543.23802 309.93538,520.93269 309.93538,493.79513 C 309.93538,466.65757 324.21499,444.34349 342.14417,444.34349 z M 342.14417,445.1401 C 324.9302,445.1401 310.72675,466.74511 310.72675,493.79513 C 310.72675,520.8364 324.9302,542.45016 342.14417,542.45016 C 359.35464,542.45016 373.55371,520.8364 373.55371,493.79513 C 373.55371,466.74511 359.35464,445.1401 342.14417,445.1401" class="ps06" id="path344" style="fill: rgb(9, 38, 74); fill-rule: nonzero; stroke: none;"/>
      <path d="M 313.76441,503.88855 L 370.51606,503.88855 C 370.51606,503.88855 369.39554,519.01556 360.73778,530.08068 C 354.59243,537.94182 347.02018,540.45423 342.20545,540.45423 C 336.85672,540.45423 329.86311,538.1169 323.66174,530.03691 C 315.10027,518.893 313.76441,503.88855 313.76441,503.88855" class="ps07" id="path346" style="fill: rgb(12, 46, 89); fill-rule: nonzero; stroke: none;"/>
      <path d="M 323.66261,508.76456 L 321.58265,514.07827 L 321.24037,514.07827 L 319.22694,508.77332 L 319.00721,512.87021 C 318.99495,512.94024 318.98182,513.14159 318.98182,513.29916 C 318.98182,513.65808 319.45804,513.67558 319.71454,513.67558 L 319.78282,513.67558 L 319.78282,514.07827 L 317.44111,514.07827 L 317.44111,513.68434 C 317.63107,513.67558 318.15894,513.67558 318.31914,513.483 C 318.43469,513.33418 318.4592,513.07156 318.50648,512.49379 L 318.69907,508.63325 C 318.7262,508.30935 318.69644,508.18679 318.61065,508.12552 C 318.47584,508.02047 318.04601,508.01171 317.89807,508.00296 L 317.89807,507.60903 L 319.88962,507.60903 L 321.6947,512.30995 L 323.53918,507.60903 L 325.50359,507.60903 L 325.50359,508.00296 L 325.43619,508.00296 C 325.01862,508.00296 324.84003,508.01171 324.75424,508.10801 C 324.66758,508.2043 324.6562,508.40564 324.69034,508.91338 L 324.89956,512.65136 C 324.91269,512.87021 324.92057,513.31667 325.04926,513.5005 C 325.2042,513.72811 325.61389,513.68434 325.83187,513.67558 L 325.83187,514.07827 L 322.96667,514.07827 L 322.96667,513.68434 C 323.17414,513.66683 323.48403,513.65808 323.67399,513.57054 C 323.81493,513.50926 323.89897,513.40421 323.89897,513.19411 C 323.89897,513.09782 323.88584,512.81769 323.87271,512.72139 L 323.66261,508.76456" class="ps01" id="path348" style="fill: rgb(255, 255, 255); fill-rule: nonzero; stroke: none;"/>
      <path d="M 336.72541,507.58276 L 337.05807,507.58276 L 337.19813,509.176 L 336.83046,509.176 C 336.62912,508.58073 336.24657,507.84539 335.48584,507.84539 C 334.98686,507.84539 334.48262,508.26558 334.48262,508.71204 C 334.48262,508.99217 334.55703,509.18476 334.79689,509.42112 C 335.15756,509.78879 335.7187,510.15646 336.13626,510.46285 C 336.8042,510.95307 337.32069,511.50458 337.32069,512.42376 C 337.32069,513.42172 336.43915,514.29712 335.32826,514.29712 C 334.92383,514.29712 334.55791,514.15706 334.17536,514.04326 L 334.10007,514.01699 L 334.02829,514.01699 C 333.91536,514.01699 333.92937,514.06076 333.91536,514.1483 L 333.58621,514.1483 L 333.4015,512.44126 L 333.78843,512.44126 C 333.97927,513.03654 334.47212,513.85067 335.22234,513.85067 C 335.58388,513.85067 336.4234,513.5968 336.4234,512.80018 C 336.4234,512.43251 336.29996,512.16989 336.06273,511.90727 C 335.82024,511.6534 335.46308,511.39953 334.99561,511.08439 C 333.81469,510.27026 333.58621,509.67498 333.58621,509.08846 C 333.58621,508.11676 334.55178,507.40768 335.35453,507.40768 C 335.66442,507.40768 335.96381,507.46896 336.21943,507.5565 L 336.42427,507.6528 L 336.54158,507.69657 L 336.58535,507.71407 C 336.64663,507.71407 336.6904,507.62653 336.72541,507.58276" class="ps01" id="path350" style="fill: rgb(255, 255, 255); fill-rule: nonzero; stroke: none;"/>
      <path d="M 329.3046,508.47568 L 328.46421,510.87429 L 330.08109,510.87429 L 329.3046,508.47568 z M 329.03673,507.8804 L 328.88353,507.39893 L 329.97078,507.39893 L 331.78725,512.87021 C 332.0026,513.5005 331.98072,513.63181 332.73794,513.68434 L 332.73794,514.07827 L 329.85523,514.07827 L 329.85523,513.68434 C 330.05395,513.67558 330.32182,513.67558 330.50916,513.61431 C 330.65273,513.56178 330.73589,513.483 330.73589,513.30791 C 330.73589,513.11533 330.64835,512.80893 330.55643,512.5288 L 330.17563,511.33825 L 328.36704,511.33825 C 328.1762,511.881 327.87857,512.60759 327.84705,513.19411 C 327.82692,513.55303 328.0659,513.60555 328.34516,513.64057 L 328.69532,513.67558 L 328.75397,514.07827 L 326.35886,514.07827 L 326.35886,513.69309 C 326.85959,513.57929 327.0268,513.47424 327.21238,513.01903 C 327.27016,512.87897 327.32881,512.70388 327.40147,512.50254 L 329.03673,507.8804" class="ps01" id="path352" style="fill: rgb(255, 255, 255); fill-rule: nonzero; stroke: none;"/>
      <path d="M 341.88155,508.08174 L 340.52467,508.08174 L 340.52467,510.55039 L 341.72398,510.55039 C 341.97784,510.55039 342.1004,510.55039 342.18794,510.4716 C 342.32801,510.34029 342.34551,509.9201 342.35427,509.76252 L 342.73945,509.76252 L 342.73945,511.8635 L 342.35427,511.8635 C 342.32801,511.13691 342.36302,511.02311 341.63644,511.02311 L 340.52467,511.02311 L 340.52467,513.04529 C 340.52467,513.37795 340.53342,513.49175 340.58595,513.54427 C 340.65598,513.62306 340.95362,513.60555 341.04116,513.60555 L 342.03912,513.60555 C 342.85325,513.60555 342.9583,513.1766 343.13338,512.39749 L 343.5098,512.39749 L 343.36098,514.07827 L 338.51124,514.07827 L 338.51124,513.67558 C 339.26409,513.7106 339.43917,513.63181 339.43917,512.90523 L 339.43917,508.78207 C 339.43917,508.02047 339.21156,507.9942 338.51124,508.01171 L 338.51124,507.60903 L 343.13338,507.60903 L 343.1859,509.13223 L 342.82699,509.13223 C 342.69568,508.34437 342.66941,508.08174 341.88155,508.08174" class="ps01" id="path354" style="fill: rgb(255, 255, 255); fill-rule: nonzero; stroke: none;"/>
      <path d="M 357.33245,509.15849 L 356.99104,509.15849 L 357.1136,507.40768 L 357.40248,507.40768 C 357.44626,507.49522 357.47252,507.54775 357.56881,507.58276 C 357.60383,507.60027 357.6476,507.60903 357.71763,507.60903 L 357.95399,507.60903 L 361.58692,507.60903 C 361.80577,507.60903 361.91958,507.60027 361.98085,507.57401 C 362.05089,507.54775 362.0684,507.47772 362.09466,507.40768 L 362.38354,507.40768 L 362.53236,509.15849 L 362.16469,509.15849 C 362.12092,508.93964 362.02462,508.40564 361.83204,508.2043 C 361.70948,508.0905 361.56941,508.08174 361.31555,508.08174 L 360.29132,508.08174 L 360.29132,512.82644 C 360.29132,513.26414 360.32634,513.43923 360.4489,513.53552 C 360.62398,513.66683 361.19299,513.67558 361.36807,513.68434 L 361.36807,514.07827 L 358.13783,514.07827 L 358.13783,513.68434 C 358.30415,513.67558 358.89943,513.66683 359.06576,513.54427 C 359.17956,513.45673 359.21457,513.29916 359.21457,512.88772 L 359.21457,508.08174 L 358.30415,508.08174 C 357.93648,508.08174 357.68261,508.05548 357.5513,508.42315 C 357.46376,508.65951 357.40248,508.91338 357.33245,509.15849" class="ps01" id="path356" style="fill: rgb(255, 255, 255); fill-rule: nonzero; stroke: none;"/>
      <path d="M 363.51281,507.60903 L 366.54172,507.60903 L 366.54172,508.00296 C 365.49998,508.05548 365.57002,508.22181 365.57002,509.21977 L 365.57002,512.75641 C 365.63129,513.5968 365.76261,513.62306 366.57673,513.68434 L 366.57673,514.07827 L 363.55658,514.07827 L 363.55658,513.68434 C 363.76668,513.66683 364.00304,513.66683 364.20438,513.60555 C 364.29192,513.57929 364.30943,513.55303 364.3532,513.483 C 364.47576,513.23788 364.48451,512.74766 364.48451,512.14363 L 364.48451,508.93089 C 364.48451,508.10801 364.30943,508.06424 363.51281,508.00296 L 363.51281,507.60903" class="ps01" id="path358" style="fill: rgb(255, 255, 255); fill-rule: nonzero; stroke: none;"/>
      <path d="M 346.85385,510.83052 L 347.53667,510.83052 C 347.79929,510.82176 348.0444,510.82176 348.28076,510.67294 C 348.53463,510.51537 348.76223,510.16521 348.76223,509.3861 C 348.76223,508.19555 348.07066,507.9942 347.51916,507.9942 C 347.30906,507.98545 347.02018,508.00296 346.85385,508.00296 L 346.85385,510.83052 z M 353.54195,508.47568 L 352.70156,510.87429 L 354.32106,510.87429 L 353.54195,508.47568 z M 354.20726,507.39893 L 356.0281,512.87021 C 356.2382,513.5005 356.22069,513.63181 356.97354,513.68434 L 356.97354,514.07827 L 354.09345,514.07827 L 354.09345,513.68434 C 354.35607,513.67558 354.97761,513.71936 354.97761,513.30791 C 354.97761,513.11533 354.88132,512.80893 354.79378,512.5288 L 354.41735,511.33825 L 352.60526,511.33825 C 352.39517,511.92477 352.1413,512.56382 352.08877,513.20287 C 352.045,513.7106 352.64903,513.67558 352.99044,513.68434 L 352.99044,514.07827 L 350.67062,514.07827 C 349.7602,514.11329 349.03361,513.85942 348.4646,512.87897 C 348.32453,512.63385 347.79929,511.58337 347.63296,511.29448 L 346.86261,511.29448 L 346.87136,512.67762 C 346.87136,513.54427 346.95015,513.67558 347.46663,513.67558 L 347.9306,513.67558 L 347.9306,514.07827 L 344.78789,514.07827 L 344.78789,513.67558 C 345.56701,513.7106 345.75959,513.62306 345.75959,512.87021 L 345.75959,508.59823 C 345.75959,508.18679 345.7771,508.02047 345.36566,507.98545 C 345.17307,507.9767 344.98048,507.9767 344.78789,507.9767 L 344.78789,507.58276 C 345.60202,507.56526 346.43366,507.57401 347.23903,507.57401 C 347.73801,507.57401 348.21073,507.54775 348.70096,507.69657 C 349.27872,507.8804 349.81272,508.3181 349.81272,509.2898 C 349.81272,510.46285 349.14741,510.83927 348.68345,511.04061 C 348.9023,511.25947 349.02486,511.4433 349.46256,512.47628 C 349.90902,513.5005 350.09285,513.64932 350.61809,513.72811 C 351.22212,513.70185 351.34468,513.34293 351.64232,512.50254 L 353.27933,507.8804 L 353.12175,507.39893 L 354.20726,507.39893" class="ps01" id="path360" style="fill: rgb(255, 255, 255); fill-rule: nonzero; stroke: none;"/>
    </g>
  </g>
</svg>